# xmcd
#
# Track frame offsets:
#	177
#	22585
#	36062
#	51967
#	57437
#	81625
#	96130
#	100427
#	122060
#	124975
#	135237
#	140270
#	169127
#	183077
#	203080
#	221695
#
# Disc length: 4067 seconds
#
# Revision: 0
# Processed by: cddbd v1.4PL0 Copyright (c) Steve Scherf et al.
# Submitted via: dBpowerAMP V4.0
#
DISCID=df0fe110
DTITLE=Greenhorns - Gunsmoke
DYEAR=1997
DGENRE=Blues
TTITLE0=Mister Swine
TTITLE1=Backdoor Man
TTITLE2=Don't Don't Do Me
TTITLE3=Gubsmoke
TTITLE4=Red Pepper Blues
TTITLE5=Fender Bender
TTITLE6=Concrete Shoes
TTITLE7=Where's The Money Gone
TTITLE8=Mexican Breakfast
TTITLE9=Jenny Got Juiced
TTITLE10=Hapa Haole March
TTITLE11=Death Walks Behind
TTITLE12=Kings and Queens
TTITLE13=Louisiane X-Press
TTITLE14=Walls Talk
TTITLE15=The Final groove III (The Revenge)
EXTD=
EXTT0=
EXTT1=
EXTT2=
EXTT3=
EXTT4=
EXTT5=
EXTT6=
EXTT7=
EXTT8=
EXTT9=
EXTT10=
EXTT11=
EXTT12=
EXTT13=
EXTT14=
EXTT15=
PLAYORDER=
